<svg width="269" height="61" viewBox="0 0 269 61" fill="none" xmlns="http://www.w3.org/2000/svg">
<path d="M268.212 21.408L251.748 60.576H244.596L250.356 47.328L239.7 21.408H247.236L254.1 39.984L261.06 21.408H268.212Z" fill="white"/>
<path d="M229.836 25.536C230.7 24.128 231.82 23.024 233.196 22.224C234.604 21.424 236.204 21.024 237.996 21.024V28.08H236.22C234.108 28.08 232.508 28.576 231.42 29.568C230.364 30.56 229.836 32.288 229.836 34.752V48H223.116V21.408H229.836V25.536Z" fill="white"/>
<path d="M210.18 25.536C211.044 24.128 212.164 23.024 213.54 22.224C214.948 21.424 216.548 21.024 218.34 21.024V28.08H216.564C214.452 28.08 212.852 28.576 211.764 29.568C210.708 30.56 210.18 32.288 210.18 34.752V48H203.46V21.408H210.18V25.536Z" fill="white"/>
<path d="M198.305 34.128C198.305 35.088 198.241 35.952 198.113 36.72H178.673C178.833 38.64 179.505 40.144 180.689 41.232C181.873 42.32 183.329 42.864 185.057 42.864C187.553 42.864 189.329 41.792 190.385 39.648H197.633C196.865 42.208 195.393 44.32 193.217 45.984C191.041 47.616 188.369 48.432 185.201 48.432C182.641 48.432 180.337 47.872 178.289 46.752C176.273 45.6 174.689 43.984 173.537 41.904C172.417 39.824 171.857 37.424 171.857 34.704C171.857 31.952 172.417 29.536 173.537 27.456C174.657 25.376 176.225 23.776 178.241 22.656C180.257 21.536 182.577 20.976 185.201 20.976C187.729 20.976 189.985 21.52 191.969 22.608C193.985 23.696 195.537 25.248 196.625 27.264C197.745 29.248 198.305 31.536 198.305 34.128ZM191.345 32.208C191.313 30.48 190.689 29.104 189.473 28.08C188.257 27.024 186.769 26.496 185.009 26.496C183.345 26.496 181.937 27.008 180.785 28.032C179.665 29.024 178.977 30.416 178.721 32.208H191.345Z" fill="white"/>
<path d="M147.524 25.296C148.388 24.016 149.572 22.976 151.076 22.176C152.612 21.376 154.356 20.976 156.308 20.976C158.58 20.976 160.628 21.536 162.452 22.656C164.308 23.776 165.764 25.376 166.82 27.456C167.908 29.504 168.452 31.888 168.452 34.608C168.452 37.328 167.908 39.744 166.82 41.856C165.764 43.936 164.308 45.552 162.452 46.704C160.628 47.856 158.58 48.432 156.308 48.432C154.324 48.432 152.58 48.048 151.076 47.28C149.604 46.48 148.42 45.456 147.524 44.208V48H140.804V12.48H147.524V25.296ZM161.588 34.608C161.588 33.008 161.252 31.632 160.58 30.48C159.94 29.296 159.076 28.4 157.988 27.792C156.932 27.184 155.78 26.88 154.532 26.88C153.316 26.88 152.164 27.2 151.076 27.84C150.02 28.448 149.156 29.344 148.484 30.528C147.844 31.712 147.524 33.104 147.524 34.704C147.524 36.304 147.844 37.696 148.484 38.88C149.156 40.064 150.02 40.976 151.076 41.616C152.164 42.224 153.316 42.528 154.532 42.528C155.78 42.528 156.932 42.208 157.988 41.568C159.076 40.928 159.94 40.016 160.58 38.832C161.252 37.648 161.588 36.24 161.588 34.608Z" fill="white"/>
<path d="M133.914 12.48V48H127.194V12.48H133.914Z" fill="white"/>
<path d="M120.314 21.408V48H113.546V44.64C112.682 45.792 111.546 46.704 110.138 47.376C108.762 48.016 107.258 48.336 105.626 48.336C103.546 48.336 101.706 47.904 100.106 47.04C98.5059 46.144 97.2419 44.848 96.3139 43.152C95.4179 41.424 94.9699 39.376 94.9699 37.008V21.408H101.69V36.048C101.69 38.16 102.218 39.792 103.274 40.944C104.33 42.064 105.77 42.624 107.594 42.624C109.45 42.624 110.906 42.064 111.962 40.944C113.018 39.792 113.546 38.16 113.546 36.048V21.408H120.314Z" fill="white"/>
<path d="M88.316 14.496V48H81.596V26.208L72.62 48H67.532L58.508 26.208V48H51.788V14.496H59.42L70.076 39.408L80.732 14.496H88.316Z" fill="white"/>
<path d="M9.11386 3.27085C7.0795 5.07258 6.27496 7.52225 6.06176 9.82282C5.69527 13.7775 8.07781 17.6442 11.8874 18.7668C14.3029 19.4786 16.5683 19.4396 17.845 19.0728C20.5679 18.3858 27.528 14.691 30.032 3.27085C20.3211 -2.65297 12.0404 0.802589 9.11386 3.27085Z" fill="white"/>
<path d="M29.6225 32.4553C33.2043 31.046 37.1764 33.4847 36.1088 37.1829L32.4653 49.8059C30.4522 56.7792 23.8667 61.4194 16.6225 60.97C9.37842 60.5204 3.41721 55.1015 2.28168 47.9329C1.87093 45.3382 3.31867 42.8069 5.76312 41.845L29.6225 32.4553Z" fill="white"/>
<path d="M26.8745 15.7112C28.9959 16.8066 30.9406 18.3368 32.5698 20.2942C34.945 23.1478 33.0891 27.1221 29.6342 28.4817L5.50824 37.9758C3.18737 38.8891 0.61701 37.4197 0.226992 34.9563C-0.72846 28.9239 1.36904 22.8103 5.8266 18.635C5.96891 18.5017 6.11294 18.3713 6.25824 18.2434C7.21088 19.4028 8.44085 20.3309 9.89789 20.8928C13.2519 22.1862 16.5549 22.1959 18.309 21.6858C20.1637 21.2122 23.6487 19.5663 26.8745 15.7112Z" fill="white"/>
</svg>
