<svg width="277" height="73" viewBox="0 0 277 73" fill="none" xmlns="http://www.w3.org/2000/svg">
<path d="M22.8115 14.3398C20.9792 15.8666 19.7068 18.1313 19.2997 19.0728C18.5108 22.0754 17.3824 26.7515 19.8341 21.7446C22.1699 16.9745 22.503 16.9745 23.7131 15.8172C27.4998 19.3593 32.6877 19.7089 34.9017 19.0728C37.6246 18.3858 44.5847 14.691 47.0888 3.27085C37.3779 -2.65297 29.0971 0.802589 26.1706 3.27085C21.8954 7.05721 22.1498 12.2278 22.8115 14.3398Z" fill="white"/>
<path d="M11.512 8.15636C18.9021 13.2863 18.6629 21.2866 17.6195 24.6455C17.7977 27.1902 18.4746 30.4168 19.7572 22.9661C21.3604 13.6528 15.7109 7.77467 14.7184 6.70592C13.726 5.63718 13.2679 4.87379 11.512 6.17155C10.1072 7.20976 10.9266 7.92734 11.512 8.15636Z" fill="white"/>
<path fill-rule="evenodd" clip-rule="evenodd" d="M29.6241 41.4555C33.2055 40.0462 37.1772 42.4847 36.1098 46.1825L32.4653 58.8055C30.4523 65.7789 23.8677 70.4199 16.6235 69.9706C9.37933 69.5212 3.41829 64.1022 2.2827 56.9335C1.87139 54.339 3.31869 51.8073 5.76312 50.8454L29.6241 41.4555ZM5.82664 27.6346C13.5589 20.3921 25.7932 21.1511 32.5708 29.2938C34.9458 32.1472 33.0892 36.1218 29.6346 37.4813L5.50788 46.9765C3.18705 47.8898 0.617047 46.4203 0.227032 43.9569C-0.728523 37.9244 1.369 31.81 5.82664 27.6346Z" fill="white"/>
<path d="M275.301 32.4082L258.837 71.5762H251.685L257.445 58.3282L246.789 32.4082H254.325L261.189 50.9842L268.149 32.4082H275.301Z" fill="white"/>
<path d="M236.925 36.5362C237.789 35.1282 238.909 34.0242 240.285 33.2242C241.693 32.4242 243.293 32.0242 245.085 32.0242V39.0802H243.309C241.197 39.0802 239.597 39.5762 238.509 40.5682C237.453 41.5602 236.925 43.2882 236.925 45.7522V59.0002H230.205V32.4082H236.925V36.5362Z" fill="white"/>
<path d="M217.269 36.5362C218.133 35.1282 219.253 34.0242 220.629 33.2242C222.037 32.4242 223.637 32.0242 225.429 32.0242V39.0802H223.653C221.541 39.0802 219.941 39.5762 218.853 40.5682C217.797 41.5602 217.269 43.2882 217.269 45.7522V59.0002H210.549V32.4082H217.269V36.5362Z" fill="white"/>
<path d="M205.394 45.1283C205.394 46.0883 205.33 46.9523 205.202 47.7203H185.762C185.922 49.6403 186.594 51.1443 187.778 52.2323C188.962 53.3203 190.418 53.8643 192.146 53.8643C194.642 53.8643 196.418 52.7923 197.474 50.6483H204.722C203.954 53.2083 202.482 55.3203 200.306 56.9843C198.13 58.6163 195.458 59.4323 192.29 59.4323C189.73 59.4323 187.426 58.8723 185.378 57.7523C183.362 56.6003 181.778 54.9843 180.626 52.9043C179.506 50.8243 178.946 48.4243 178.946 45.7043C178.946 42.9523 179.506 40.5363 180.626 38.4563C181.746 36.3763 183.314 34.7763 185.33 33.6563C187.346 32.5363 189.666 31.9763 192.29 31.9763C194.818 31.9763 197.074 32.5203 199.058 33.6083C201.074 34.6963 202.626 36.2483 203.714 38.2643C204.834 40.2483 205.394 42.5363 205.394 45.1283ZM198.434 43.2083C198.402 41.4803 197.778 40.1043 196.562 39.0803C195.346 38.0243 193.858 37.4963 192.098 37.4963C190.434 37.4963 189.026 38.0083 187.874 39.0323C186.754 40.0243 186.066 41.4163 185.81 43.2083H198.434Z" fill="white"/>
<path d="M154.613 36.2962C155.477 35.0162 156.661 33.9762 158.165 33.1762C159.701 32.3762 161.445 31.9762 163.397 31.9762C165.669 31.9762 167.717 32.5362 169.541 33.6562C171.397 34.7762 172.853 36.3762 173.909 38.4562C174.997 40.5042 175.541 42.8882 175.541 45.6082C175.541 48.3282 174.997 50.7442 173.909 52.8562C172.853 54.9362 171.397 56.5522 169.541 57.7042C167.717 58.8562 165.669 59.4322 163.397 59.4322C161.413 59.4322 159.669 59.0482 158.165 58.2802C156.693 57.4802 155.509 56.4562 154.613 55.2082V59.0002H147.893V23.4802H154.613V36.2962ZM168.677 45.6082C168.677 44.0082 168.341 42.6322 167.669 41.4802C167.029 40.2962 166.165 39.4002 165.077 38.7922C164.021 38.1842 162.869 37.8802 161.621 37.8802C160.405 37.8802 159.253 38.2002 158.165 38.8402C157.109 39.4482 156.245 40.3442 155.573 41.5282C154.933 42.7122 154.613 44.1042 154.613 45.7042C154.613 47.3042 154.933 48.6962 155.573 49.8802C156.245 51.0642 157.109 51.9762 158.165 52.6162C159.253 53.2242 160.405 53.5282 161.621 53.5282C162.869 53.5282 164.021 53.2082 165.077 52.5682C166.165 51.9282 167.029 51.0162 167.669 49.8322C168.341 48.6482 168.677 47.2402 168.677 45.6082Z" fill="white"/>
<path d="M141.003 23.4802V59.0002H134.283V23.4802H141.003Z" fill="white"/>
<path d="M127.403 32.4082V59.0002H120.635V55.6402C119.771 56.7922 118.635 57.7042 117.227 58.3762C115.851 59.0162 114.347 59.3362 112.715 59.3362C110.635 59.3362 108.795 58.9042 107.195 58.0402C105.595 57.1442 104.331 55.8482 103.403 54.1522C102.507 52.4242 102.059 50.3762 102.059 48.0082V32.4082H108.779V47.0482C108.779 49.1602 109.307 50.7922 110.363 51.9442C111.419 53.0642 112.859 53.6242 114.683 53.6242C116.539 53.6242 117.995 53.0642 119.051 51.9442C120.107 50.7922 120.635 49.1602 120.635 47.0482V32.4082H127.403Z" fill="white"/>
<path d="M95.405 25.4963V59.0003H88.685V37.2083L79.709 59.0003H74.621L65.597 37.2083V59.0003H58.877V25.4963H66.509L77.165 50.4083L87.821 25.4963H95.405Z" fill="white"/>
</svg>
